# xmcd CD database file generated by MAGIX-FreeDB-MP3_Maker_12 v2.0beta1
# 
# Track frame offsets:
#      150
#      9042
#      28932
#      48662
#      72632
#      91152
#      99717
#      114820
#      137000
#      156030
#      170472
#      194110
#      213680
#      221210
#      233345
#      237967
# 
# Disc length: 3528 seconds
# 
# Revision: 0 
# Processed by: cddbd v1.5.2PL0 Copyright (c) Steve Scherf et al.
# Submitted via: MAGIX-FreeDB-MP3_Maker_12 v2.0beta1
# 
DISCID=e00dc610
DTITLE=Brown, James - James Brown
DYEAR=1996
DGENRE=Soul/Funk
TTITLE0=James Brown - Get up offa that thing
TTITLE1=James Brown - Show me
TTITLE2=James Brown - Later for Dancing
TTITLE3=James Brown - You are my everything
TTITLE4=James Brown - Bring it on
TTITLE5=James Brown - Try me
TTITLE6=James Brown - I got you
TTITLE7=James Brown - It's too funky in here
TTITLE8=James Brown - Teardrops on your Letter
TTITLE9=James Brown - It's time to love
TTITLE10=James Brown - Dance Dance Dancd to the Funk
TTITLE11=James Brown - You can't keep a man down
TTITLE12=James Brown - Please Please Please
TTITLE13=James Brown - Prisoner of love
TTITLE14=James Brown - Cold sweat
TTITLE15=James Brown - Georgia on my mind
EXTD=
EXTT0=
EXTT1=
EXTT2=
EXTT3=
EXTT4=
EXTT5=
EXTT6=
EXTT7=
EXTT8=
EXTT9=
EXTT10=
EXTT11=
EXTT12=
EXTT13=
EXTT14=
EXTT15=
PLAYORDER=
